<?xml version="1.0" encoding="UTF-8" standalone="no"?>
<!-- Generator: Adobe Illustrator 19.0.0, SVG Export Plug-In . SVG Version: 6.00 Build 0)  -->

<svg
   xmlns:dc="http://purl.org/dc/elements/1.1/"
   xmlns:cc="http://creativecommons.org/ns#"
   xmlns:rdf="http://www.w3.org/1999/02/22-rdf-syntax-ns#"
   xmlns:svg="http://www.w3.org/2000/svg"
   xmlns="http://www.w3.org/2000/svg"
   xmlns:sodipodi="http://sodipodi.sourceforge.net/DTD/sodipodi-0.dtd"
   xmlns:inkscape="http://www.inkscape.org/namespaces/inkscape"
   version="1.1"
   id="Layer_1"
   x="0px"
   y="0px"
   viewBox="0 0 261.421 431.17201"
   xml:space="preserve"
   sodipodi:docname="truck-success.svg"
   width="261.42099"
   height="431.172"
   inkscape:version="0.92.2 5c3e80d, 2017-08-06"
   inkscape:export-filename="/Users/yvargas/www/um-yostinv/public/img/map-icons/truck-success.png"
   inkscape:export-xdpi="12"
   inkscape:export-ydpi="12"><metadata
     id="metadata148"><rdf:RDF><cc:Work
         rdf:about=""><dc:format>image/svg+xml</dc:format><dc:type
           rdf:resource="http://purl.org/dc/dcmitype/StillImage" /><dc:title></dc:title></cc:Work></rdf:RDF></metadata><defs
     id="defs146" /><sodipodi:namedview
     pagecolor="#ffffff"
     bordercolor="#666666"
     borderopacity="1"
     objecttolerance="10"
     gridtolerance="10"
     guidetolerance="10"
     inkscape:pageopacity="0"
     inkscape:pageshadow="2"
     inkscape:window-width="1554"
     inkscape:window-height="906"
     id="namedview144"
     showgrid="false"
     fit-margin-top="0"
     fit-margin-left="0"
     fit-margin-right="0"
     fit-margin-bottom="0"
     inkscape:zoom="0.90509668"
     inkscape:cx="-0.73944738"
     inkscape:cy="252.64881"
     inkscape:window-x="128"
     inkscape:window-y="29"
     inkscape:window-maximized="0"
     inkscape:current-layer="Layer_1" /><path
     style="fill:#2ca05a"
     d="m 0,210.711 c 0,72.282 130.711,220.461 130.711,220.461 V 80.000018 C 58.428,80.000018 0,138.42801 0,210.711 Z"
     id="path107"
     inkscape:connector-curvature="0"
     inkscape:export-filename="/Users/yvargas/www/um-yostinv/public/img/map-icons/33x45/truck-success.png"
     inkscape:export-xdpi="12.201268"
     inkscape:export-ydpi="12.201268" /><path
     style="fill:#217844"
     d="M 130.71,80.000018 V 431.172 c 0,0 130.711,-148.179 130.711,-220.461 0,-72.28199 -58.428,-130.710982 -130.711,-130.710982 z"
     id="path109"
     inkscape:connector-curvature="0"
     inkscape:export-filename="/Users/yvargas/www/um-yostinv/public/img/map-icons/33x45/truck-success.png"
     inkscape:export-xdpi="12.201268"
     inkscape:export-ydpi="12.201268" /><circle
     style="fill:#ebf0f3"
     cx="130.70999"
     cy="210.711"
     r="86.738998"
     id="circle111"
     inkscape:export-filename="/Users/yvargas/www/um-yostinv/public/img/map-icons/33x45/truck-success.png"
     inkscape:export-xdpi="12.201268"
     inkscape:export-ydpi="12.201268" /><g
     id="g113"
     transform="translate(-110.231,80.000018)" /><g
     id="g115"
     transform="translate(-110.231,80.000018)" /><g
     id="g117"
     transform="translate(-110.231,80.000018)" /><g
     id="g119"
     transform="translate(-110.231,80.000018)" /><g
     id="g121"
     transform="translate(-110.231,80.000018)" /><g
     id="g123"
     transform="translate(-110.231,80.000018)" /><g
     id="g125"
     transform="translate(-110.231,80.000018)" /><g
     id="g127"
     transform="translate(-110.231,80.000018)" /><g
     id="g129"
     transform="translate(-110.231,80.000018)" /><g
     id="g131"
     transform="translate(-110.231,80.000018)" /><g
     id="g133"
     transform="translate(-110.231,80.000018)" /><g
     id="g135"
     transform="translate(-110.231,80.000018)" /><g
     id="g137"
     transform="translate(-110.231,80.000018)" /><g
     id="g139"
     transform="translate(-110.231,80.000018)" /><g
     id="g141"
     transform="translate(-110.231,80.000018)" /><g
     id="g548"
     transform="matrix(0.27097687,0,0,0.27097687,60.16727,145.42622)"
     style="fill:#217844;fill-opacity:1"
     inkscape:export-filename="/Users/yvargas/www/um-yostinv/public/img/map-icons/33x45/truck-success.png"
     inkscape:export-xdpi="12.201268"
     inkscape:export-ydpi="12.201268"><g
       id="g492"
       style="fill:#217844;fill-opacity:1"><path
         id="path490"
         d="m 487.932,51.1 c -3.613,-3.612 -7.905,-5.424 -12.847,-5.424 h -292.36 c -4.948,0 -9.233,1.812 -12.847,5.424 -3.615,3.617 -5.424,7.902 -5.424,12.85 v 54.818 h -45.683 c -5.14,0 -10.71,1.237 -16.705,3.711 -5.996,2.478 -10.801,5.518 -14.416,9.135 l -56.532,56.531 c -2.473,2.474 -4.612,5.327 -6.424,8.565 -1.807,3.23 -3.14,6.14 -3.997,8.705 -0.855,2.572 -1.477,6.089 -1.854,10.566 -0.378,4.475 -0.62,7.758 -0.715,9.853 -0.091,2.092 -0.091,5.71 0,10.85 0.096,5.142 0.144,8.47 0.144,9.995 v 91.36 c -4.947,0 -9.229,1.807 -12.847,5.428 C 1.809,347.076 0,351.363 0,356.312 c 0,2.851 0.378,5.376 1.14,7.562 0.763,2.19 2.046,3.949 3.858,5.284 1.807,1.335 3.378,2.426 4.709,3.285 1.335,0.855 3.571,1.424 6.711,1.711 3.14,0.287 5.28,0.479 6.423,0.575 1.143,0.089 3.568,0.089 7.279,0 3.715,-0.096 5.855,-0.144 6.427,-0.144 h 18.271 c 0,20.17 7.139,37.397 21.411,51.674 14.277,14.274 31.501,21.413 51.678,21.413 20.175,0 37.401,-7.139 51.675,-21.413 14.277,-14.276 21.411,-31.504 21.411,-51.674 H 310.63 c 0,20.17 7.139,37.397 21.412,51.674 14.271,14.274 31.498,21.413 51.675,21.413 20.181,0 37.397,-7.139 51.675,-21.413 14.277,-14.276 21.412,-31.504 21.412,-51.674 0.568,0 2.711,0.048 6.42,0.144 3.713,0.089 6.14,0.089 7.282,0 1.144,-0.096 3.289,-0.288 6.427,-0.575 3.139,-0.287 5.373,-0.855 6.708,-1.711 1.335,-0.856 2.901,-1.95 4.709,-3.285 1.81,-1.335 3.097,-3.094 3.856,-5.284 0.77,-2.187 1.143,-4.712 1.143,-7.562 V 63.953 c 0.004,-4.949 -1.803,-9.229 -5.417,-12.853 z M 153.597,400.28 c -7.229,7.23 -15.797,10.854 -25.694,10.854 -9.898,0 -18.464,-3.62 -25.697,-10.854 -7.233,-7.228 -10.848,-15.797 -10.848,-25.693 0,-9.897 3.619,-18.47 10.848,-25.701 7.232,-7.228 15.798,-10.848 25.697,-10.848 9.897,0 18.464,3.617 25.694,10.848 7.236,7.231 10.853,15.804 10.853,25.701 0,9.896 -3.617,18.465 -10.853,25.693 z M 164.45,228.403 H 54.814 v -8.562 c 0,-2.475 0.855,-4.569 2.568,-6.283 l 55.674,-55.672 c 1.712,-1.714 3.809,-2.568 6.283,-2.568 H 164.45 Z M 409.41,400.28 c -7.23,7.23 -15.797,10.854 -25.693,10.854 -9.9,0 -18.47,-3.62 -25.7,-10.854 -7.231,-7.228 -10.849,-15.797 -10.849,-25.693 0,-9.897 3.617,-18.47 10.849,-25.701 7.23,-7.228 15.8,-10.848 25.7,-10.848 9.896,0 18.463,3.617 25.693,10.848 7.231,7.235 10.852,15.804 10.852,25.701 0,9.896 -3.614,18.465 -10.852,25.693 z"
         inkscape:connector-curvature="0"
         style="fill:#217844;fill-opacity:1" /></g><g
       id="g494"
       style="fill:#217844;fill-opacity:1" /><g
       id="g496"
       style="fill:#217844;fill-opacity:1" /><g
       id="g498"
       style="fill:#217844;fill-opacity:1" /><g
       id="g500"
       style="fill:#217844;fill-opacity:1" /><g
       id="g502"
       style="fill:#217844;fill-opacity:1" /><g
       id="g504"
       style="fill:#217844;fill-opacity:1" /><g
       id="g506"
       style="fill:#217844;fill-opacity:1" /><g
       id="g508"
       style="fill:#217844;fill-opacity:1" /><g
       id="g510"
       style="fill:#217844;fill-opacity:1" /><g
       id="g512"
       style="fill:#217844;fill-opacity:1" /><g
       id="g514"
       style="fill:#217844;fill-opacity:1" /><g
       id="g516"
       style="fill:#217844;fill-opacity:1" /><g
       id="g518"
       style="fill:#217844;fill-opacity:1" /><g
       id="g520"
       style="fill:#217844;fill-opacity:1" /><g
       id="g522"
       style="fill:#217844;fill-opacity:1" /></g><rect
     style="fill:#ebf0f3;fill-opacity:1;stroke:#217844;stroke-width:8;stroke-linejoin:round;stroke-miterlimit:4;stroke-dasharray:none;stroke-opacity:1;paint-order:stroke fill markers"
     id="rect847"
     width="249.64839"
     height="70.710426"
     x="7.4903522"
     y="6.9421058"
     ry="2.6189044"
     inkscape:export-filename="/Users/yvargas/www/um-yostinv/public/img/map-icons/33x45/truck-success.png"
     inkscape:export-xdpi="12.201268"
     inkscape:export-ydpi="12.201268" /></svg>